<?xml version="1.0" encoding="utf-8"?>
<!-- Generator: Adobe Illustrator 23.1.0, SVG Export Plug-In . SVG Version: 6.00 Build 0)  -->
<svg version="1.1" id="图层_1" xmlns="http://www.w3.org/2000/svg" xmlns:xlink="http://www.w3.org/1999/xlink" x="0px" y="0px"
	 viewBox="0 0 119.1 31" style="enable-background:new 0 0 119.1 31;" xml:space="preserve">
<style type="text/css">
	.st0{enable-background:new    ;}
	.st1{fill:#ED6B00;}
	.st2{fill:#003E92;}
</style>
<g id="组_5" transform="translate(-410 -21)">
	<g class="st0">
		<path d="M437.8,48.6c0-0.3-0.1-0.5-0.3-0.6s-0.5-0.3-1-0.4c-0.6-0.1-1-0.4-1.4-0.6s-0.5-0.6-0.5-1.1c0-0.4,0.2-0.8,0.5-1.1
			s0.8-0.4,1.4-0.4c0.6,0,1.1,0.2,1.4,0.5s0.5,0.7,0.5,1.2l0,0h-0.7c0-0.3-0.1-0.6-0.3-0.8s-0.5-0.3-0.9-0.3c-0.4,0-0.6,0.1-0.8,0.3
			s-0.3,0.4-0.3,0.7c0,0.2,0.1,0.5,0.3,0.6s0.6,0.3,1,0.4c0.6,0.1,1,0.4,1.3,0.7s0.4,0.6,0.4,1.1c0,0.5-0.2,0.8-0.5,1.1
			s-0.8,0.4-1.4,0.4c-0.5,0-1-0.2-1.5-0.5s-0.6-0.7-0.6-1.2l0,0h0.7c0,0.4,0.1,0.6,0.4,0.8s0.6,0.3,0.9,0.3c0.4,0,0.7-0.1,0.9-0.2
			S437.8,48.8,437.8,48.6z"/>
		<path d="M440.6,44.8v1h0.8v0.6h-0.8v2.6c0,0.2,0,0.3,0.1,0.4s0.2,0.1,0.3,0.1c0,0,0.1,0,0.1,0s0.1,0,0.1,0l0.1,0.5
			c-0.1,0-0.1,0.1-0.3,0.1s-0.2,0-0.3,0c-0.3,0-0.6-0.1-0.7-0.3s-0.3-0.5-0.3-0.9v-2.6h-0.7v-0.6h0.7v-1H440.6z"/>
		<path d="M442.1,47.8c0-0.6,0.2-1.1,0.5-1.5s0.8-0.6,1.4-0.6c0.6,0,1,0.2,1.4,0.6s0.5,0.9,0.5,1.5v0.1c0,0.6-0.2,1.1-0.5,1.5
			s-0.8,0.6-1.4,0.6s-1-0.2-1.4-0.6S442.1,48.6,442.1,47.8L442.1,47.8z M442.8,47.9c0,0.4,0.1,0.8,0.3,1.1s0.5,0.4,0.8,0.4
			c0.4,0,0.6-0.1,0.8-0.4s0.3-0.7,0.3-1.1v-0.1c0-0.4-0.1-0.8-0.3-1.1s-0.5-0.4-0.8-0.4c-0.4,0-0.6,0.1-0.8,0.4
			S442.8,47.4,442.8,47.9L442.8,47.9z"/>
		<path d="M448.5,49.5c0.2,0,0.4-0.1,0.6-0.2s0.3-0.4,0.3-0.6h0.7l0,0c0,0.4-0.1,0.7-0.5,1s-0.7,0.4-1.1,0.4c-0.6,0-1.1-0.2-1.4-0.6
			s-0.5-0.9-0.5-1.5v-0.2c0-0.6,0.2-1.1,0.5-1.5s0.8-0.6,1.4-0.6c0.5,0,0.9,0.1,1.2,0.4s0.4,0.6,0.4,1.1l0,0h-0.7
			c0-0.3-0.1-0.5-0.3-0.7s-0.4-0.3-0.6-0.3c-0.4,0-0.7,0.1-0.8,0.4s-0.3,0.6-0.3,1.1V48c0,0.4,0.1,0.8,0.3,1.1
			S448.1,49.5,448.5,49.5z"/>
		<path d="M452.2,48.1h-0.4V50H451v-6.1h0.8v3.5h0.4l1.3-1.7h0.9l-1.5,1.9l1.7,2.3h-0.9L452.2,48.1z"/>
		<path d="M461.2,48.2L461.2,48.2c0,0.6-0.2,1-0.6,1.4s-0.9,0.5-1.5,0.5c-0.6,0-1.2-0.2-1.6-0.7s-0.6-1-0.6-1.7v-1
			c0-0.7,0.2-1.3,0.6-1.7s0.9-0.7,1.6-0.7s1.2,0.2,1.5,0.5s0.6,0.8,0.6,1.4l0,0h-0.7c0-0.4-0.1-0.7-0.4-0.9s-0.6-0.3-1-0.3
			c-0.4,0-0.8,0.2-1,0.5s-0.4,0.8-0.4,1.3v1c0,0.5,0.1,1,0.4,1.3s0.6,0.5,1,0.5c0.4,0,0.8-0.1,1-0.3s0.4-0.5,0.4-1H461.2z"/>
		<path d="M462,47.8c0-0.6,0.2-1.1,0.5-1.5s0.8-0.6,1.4-0.6c0.6,0,1,0.2,1.4,0.6s0.5,0.9,0.5,1.5v0.1c0,0.6-0.2,1.1-0.5,1.5
			s-0.8,0.6-1.4,0.6s-1-0.2-1.4-0.6S462,48.6,462,47.8L462,47.8z M462.7,47.9c0,0.4,0.1,0.8,0.3,1.1s0.5,0.4,0.8,0.4
			c0.4,0,0.6-0.1,0.8-0.4s0.3-0.7,0.3-1.1v-0.1c0-0.4-0.1-0.8-0.3-1.1s-0.5-0.4-0.8-0.4c-0.4,0-0.6,0.1-0.8,0.4
			S462.7,47.4,462.7,47.9L462.7,47.9z"/>
		<path d="M466.5,48c0-0.7,0.1-1.2,0.4-1.6s0.7-0.6,1.2-0.6c0.2,0,0.5,0,0.7,0.1s0.4,0.2,0.5,0.4v-2.3h0.8V50h-0.6l-0.1-0.5
			c-0.1,0.2-0.3,0.4-0.5,0.5s-0.4,0.2-0.7,0.2c-0.5,0-0.9-0.2-1.2-0.6S466.5,48.7,466.5,48L466.5,48z M467.3,48c0,0.4,0.1,0.8,0.3,1
			s0.4,0.4,0.8,0.4c0.2,0,0.4-0.1,0.6-0.2s0.3-0.3,0.4-0.4v-2c-0.1-0.2-0.2-0.3-0.4-0.4s-0.3-0.2-0.6-0.2c-0.4,0-0.6,0.2-0.8,0.5
			S467.3,47.5,467.3,48L467.3,48z"/>
		<path d="M473,50.1c-0.6,0-1.1-0.2-1.4-0.6s-0.5-0.9-0.5-1.5v-0.2c0-0.6,0.2-1.1,0.5-1.5c0.3-0.4,0.8-0.6,1.3-0.6
			c0.6,0,1,0.2,1.3,0.5c0.3,0.4,0.4,0.8,0.4,1.4V48h-2.7l0,0c0,0.4,0.1,0.8,0.3,1s0.5,0.4,0.9,0.4c0.3,0,0.5,0,0.7-0.1
			c0.2-0.1,0.4-0.2,0.5-0.3l0.3,0.5c-0.2,0.1-0.4,0.3-0.6,0.4C473.6,50,473.3,50.1,473,50.1z M472.9,46.3c-0.3,0-0.5,0.1-0.7,0.3
			s-0.3,0.5-0.3,0.8l0,0h1.9v-0.1c0-0.3-0.1-0.6-0.2-0.8C473.4,46.4,473.2,46.3,472.9,46.3z"/>
		<path d="M476.3,46.6h-0.8v-0.8h0.8V46.6z M476.3,50h-0.8v-0.8h0.8V50z"/>
		<path d="M482.9,48c0,0.6-0.2,1.2-0.5,1.5c-0.3,0.4-0.8,0.6-1.3,0.6c-0.5,0-1-0.2-1.3-0.6c-0.3-0.4-0.5-0.9-0.5-1.5v-1.7
			c0-0.6,0.2-1.1,0.5-1.5c0.3-0.4,0.8-0.6,1.3-0.6c0.6,0,1,0.2,1.3,0.6c0.3,0.4,0.5,0.9,0.5,1.5V48z M482.2,46.2
			c0-0.4-0.1-0.7-0.3-1c-0.2-0.2-0.4-0.4-0.8-0.4c-0.3,0-0.6,0.1-0.8,0.4s-0.3,0.6-0.3,1v2c0,0.4,0.1,0.7,0.3,1s0.4,0.4,0.8,0.4
			c0.3,0,0.6-0.1,0.8-0.4s0.3-0.6,0.3-1V46.2z"/>
		<path d="M487.4,48c0,0.6-0.2,1.2-0.5,1.5c-0.3,0.4-0.8,0.6-1.3,0.6c-0.5,0-1-0.2-1.3-0.6c-0.3-0.4-0.5-0.9-0.5-1.5v-1.7
			c0-0.6,0.2-1.1,0.5-1.5c0.3-0.4,0.8-0.6,1.3-0.6c0.6,0,1,0.2,1.3,0.6c0.3,0.4,0.5,0.9,0.5,1.5V48z M486.7,46.2
			c0-0.4-0.1-0.7-0.3-1c-0.2-0.2-0.4-0.4-0.8-0.4c-0.3,0-0.6,0.1-0.8,0.4s-0.3,0.6-0.3,1v2c0,0.4,0.1,0.7,0.3,1s0.4,0.4,0.8,0.4
			c0.3,0,0.6-0.1,0.8-0.4s0.3-0.6,0.3-1V46.2z"/>
		<path d="M492,50h-3.5v-0.5l1.8-2.1c0.3-0.4,0.5-0.7,0.6-0.9s0.2-0.5,0.2-0.7c0-0.3-0.1-0.5-0.2-0.6c-0.2-0.2-0.4-0.3-0.6-0.3
			c-0.3,0-0.6,0.1-0.8,0.3s-0.3,0.5-0.3,0.8h-0.7l0,0c0-0.5,0.1-0.9,0.5-1.2c0.3-0.3,0.8-0.5,1.3-0.5c0.5,0,0.9,0.1,1.2,0.4
			c0.3,0.3,0.4,0.6,0.4,1.1c0,0.3-0.1,0.6-0.2,0.9c-0.2,0.3-0.4,0.6-0.8,1.1l-1.4,1.7l0,0h2.6V50z"/>
		<path d="M496.5,50H493v-0.5l1.8-2.1c0.3-0.4,0.5-0.7,0.6-0.9s0.2-0.5,0.2-0.7c0-0.3-0.1-0.5-0.2-0.6c-0.2-0.2-0.4-0.3-0.6-0.3
			c-0.3,0-0.6,0.1-0.8,0.3s-0.3,0.5-0.3,0.8h-0.7l0,0c0-0.5,0.1-0.9,0.5-1.2c0.3-0.3,0.8-0.5,1.3-0.5c0.5,0,0.9,0.1,1.2,0.4
			c0.3,0.3,0.4,0.6,0.4,1.1c0,0.3-0.1,0.6-0.2,0.9c-0.2,0.3-0.4,0.6-0.8,1.1l-1.4,1.7l0,0h2.6V50z"/>
		<path d="M500.9,48c0,0.6-0.2,1.2-0.5,1.5c-0.3,0.4-0.8,0.6-1.3,0.6c-0.5,0-1-0.2-1.3-0.6c-0.3-0.4-0.5-0.9-0.5-1.5v-1.7
			c0-0.6,0.2-1.1,0.5-1.5c0.3-0.4,0.8-0.6,1.3-0.6c0.6,0,1,0.2,1.3,0.6c0.3,0.4,0.5,0.9,0.5,1.5V48z M500.2,46.2
			c0-0.4-0.1-0.7-0.3-1c-0.2-0.2-0.4-0.4-0.8-0.4c-0.3,0-0.6,0.1-0.8,0.4s-0.3,0.6-0.3,1v2c0,0.4,0.1,0.7,0.3,1s0.4,0.4,0.8,0.4
			c0.3,0,0.6-0.1,0.8-0.4s0.3-0.6,0.3-1V46.2z"/>
		<path d="M503.9,44.2c0.2,0,0.4,0,0.7,0.1s0.4,0.1,0.5,0.2l-0.2,0.6c-0.1-0.1-0.3-0.1-0.5-0.2s-0.4-0.1-0.6-0.1
			c-0.4,0-0.6,0.2-0.9,0.5s-0.3,0.7-0.3,1.2v0.4c0.2-0.2,0.3-0.3,0.6-0.4c0.2-0.1,0.5-0.1,0.7-0.1c0.5,0,0.9,0.2,1.2,0.5
			s0.4,0.8,0.4,1.3c0,0.6-0.2,1-0.5,1.4c-0.3,0.3-0.8,0.5-1.3,0.5c-0.5,0-1-0.2-1.3-0.6c-0.4-0.4-0.5-0.9-0.5-1.6v-1.3
			c0-0.7,0.2-1.2,0.6-1.7S503.3,44.2,503.9,44.2z M503.7,47c-0.2,0-0.5,0.1-0.6,0.2c-0.2,0.1-0.3,0.2-0.4,0.4v0.4
			c0,0.5,0.1,0.9,0.3,1.1c0.2,0.3,0.5,0.4,0.8,0.4c0.3,0,0.6-0.1,0.7-0.4c0.2-0.2,0.3-0.6,0.3-1c0-0.4-0.1-0.7-0.3-0.9
			C504.3,47.1,504,47,503.7,47z"/>
	</g>
	<g id="组_1" transform="translate(270.467 -177.293)">
		<path id="路径_2" class="st1" d="M178.1,206.5l-0.2-0.5c-1.5,0.1-3,0.4-4.5,0.7c-0.8,0.2-1.6,0.4-2.4,0.6
			c-1.7,0.5-3.3,1.1-4.9,1.9c-2.6,1.2-5,2.9-7,5l0,0c1.6,0,3.2,0,4.8,0c0,0,0.1,0,0.1-0.1c2.9-2.7,6.3-4.7,10.1-5.9
			c0.5-0.2,1-0.3,1.4-0.5c1-0.3,1.9-0.5,2.9-0.7L178.1,206.5z"/>
		<path id="路径_3" class="st2" d="M188.1,210v-11.6h-6v11.9c0,0.7,0.1,1.3,0.4,1.9c0.3,0.4,0.6,0.7,1,1c1.4,0.8,2.9,1.1,4.5,1.1
			h10.4v-2.8h-8.6C188.7,211.6,188.1,211.1,188.1,210z"/>
		<path id="路径_4" class="st2" d="M200.7,199.4c-1,0.7-1.5,1.7-1.5,2.9v7.9c-0.1,1.8,1.2,3.4,3,3.7c0.9,0.2,1.8,0.4,2.8,0.4h11.2
			v-2.8h-9.4c-0.4,0-0.8-0.1-1.1-0.3c-0.3-0.2-0.5-0.5-0.4-0.8v-2.6h11v-2.8h-11v-2.9c0-0.3,0.2-0.6,0.5-0.7
			c0.5-0.2,1.1-0.3,1.7-0.3h8.8v-2.8h-11.9C203,198.4,201.8,198.7,200.7,199.4z"/>
		<path id="路径_5" class="st2" d="M257.1,199.5c-1.1-0.7-2.4-1.1-3.8-1h-13.3v15.8h13.9c0.5,0,1-0.1,1.5-0.2
			c0.6-0.2,1.1-0.4,1.6-0.8c1-0.7,1.6-1.8,1.5-3.1v-8C258.6,201.1,258.1,200.1,257.1,199.5z M252.9,210.5c0,0.3-0.2,0.5-0.4,0.7
			c-0.4,0.2-0.9,0.3-1.4,0.3h-5.4v-10.3h5.6c1.5,0,1.7,0.6,1.7,1.1V210.5z"/>
		<path id="路径_6" class="st2" d="M174.1,208.3c1.2,2.9,2.6,6,2.6,6h5c-1.1-2.4-2.1-4.8-3.2-7.2c-1,0.2-1.9,0.4-2.9,0.7
			C175,208,174.5,208.1,174.1,208.3z"/>
		<path id="路径_7" class="st2" d="M153.8,198.4c-0.7,0-1.3,0.6-1.4,1.3c0,0,0,0.1,0,0.1v4.5h-7.3v-4.4c0-0.1,0-0.1,0-0.1
			s0-0.1,0-0.1c-0.1-0.7-0.7-1.2-1.4-1.2h-4.3v15.9h4.3c0.7,0,1.3-0.5,1.4-1.2c0,0,0-0.1,0-0.1s0-0.1,0-0.1v-5.7h7.3v5.8
			c0,0,0,0,0,0.1c0,0,0,0,0,0.1c0,0.7,0.6,1.3,1.4,1.3h4.3v-15.9H153.8z"/>
		<path id="路径_8" class="st2" d="M166.5,208.2c1.1-2.5,2.1-4.9,2.1-4.9c0.1-0.3,0.3-0.5,0.5-0.6c0.3-0.3,0.8-0.4,1.2-0.4
			c0.4,0,0.7,0.1,1,0.3c0.3,0.2,0.5,0.4,0.6,0.7c0,0,0.5,1.1,1.1,2.7c0,0,0.1,0,0.1,0c1.4-0.3,2.9-0.5,4.4-0.7l-1.8-4
			c-0.4-0.8-0.9-1.5-1.7-2c-1.2-0.7-2.5-1.1-3.9-1c-1.5-0.1-2.9,0.4-4.1,1.3c-0.8,0.7-1.4,1.5-1.8,2.5l-3.8,8.8
			c-0.3,0.6-0.5,1.2-0.7,1.6c1.8-1.6,3.8-2.9,5.9-3.9C166,208.5,166.2,208.3,166.5,208.2z"/>
		<path id="路径_9" class="st2" d="M231.9,208.3c1.2,2.9,2.5,6,2.5,6h5c-1.1-2.4-2.1-4.8-3.2-7.2c-1,0.2-1.9,0.4-2.9,0.7
			C232.9,208,232.4,208.1,231.9,208.3z"/>
		<path id="路径_10" class="st2" d="M224.3,208.2c1.1-2.5,2.1-4.9,2.1-4.9c0.1-0.3,0.3-0.5,0.5-0.6c0.3-0.3,0.7-0.4,1.2-0.4
			c0.4,0,0.7,0.1,1,0.3c0.3,0.2,0.5,0.4,0.6,0.7c0,0,0.5,1.1,1.1,2.7c0,0,0.1,0,0.1,0c1.4-0.3,2.9-0.5,4.4-0.7l-1.8-4
			c-0.4-0.8-0.9-1.5-1.7-2c-1.2-0.7-2.5-1.1-3.9-1c-1.5-0.1-2.9,0.4-4.1,1.3c-0.8,0.7-1.4,1.5-1.8,2.5c0,0-2.3,5.3-3.8,8.8
			c-0.3,0.6-0.5,1.2-0.7,1.6c1.8-1.5,3.8-2.8,5.9-3.9C223.8,208.5,224.1,208.3,224.3,208.2z"/>
		<path id="路径_11" class="st1" d="M236,206.5l-0.2-0.5c-1.5,0.1-3,0.4-4.5,0.7c-0.8,0.2-1.6,0.4-2.4,0.6
			c-1.7,0.5-3.3,1.1-4.9,1.9c-2.6,1.2-5,2.9-7,5l0,0c1.6,0,3.2,0,4.8,0c0,0,0,0,0.1-0.1c2.9-2.7,6.3-4.7,10.1-5.9
			c0.5-0.2,0.9-0.3,1.4-0.5c1-0.3,1.9-0.5,2.9-0.7L236,206.5z"/>
	</g>
</g>
</svg>
