<?xml version="1.0" encoding="utf-8"?>
<!-- Generator: Adobe Illustrator 23.1.0, SVG Export Plug-In . SVG Version: 6.00 Build 0)  -->
<svg version="1.1" id="图层_1" xmlns="http://www.w3.org/2000/svg" xmlns:xlink="http://www.w3.org/1999/xlink" x="0px" y="0px"
	 viewBox="0 0 119.1 31" style="enable-background:new 0 0 119.1 31;" xml:space="preserve">
<style type="text/css">
	.st0{enable-background:new    ;}
	.st1{fill:#FFFFFF;}
	.st2{fill:#ED6B00;}
</style>
<g>
	<g class="st0">
		<path class="st1" d="M27.8,27.6c0-0.3-0.1-0.5-0.3-0.6s-0.5-0.3-1-0.4c-0.6-0.1-1-0.4-1.4-0.6s-0.5-0.6-0.5-1.1
			c0-0.4,0.2-0.8,0.5-1.1s0.8-0.4,1.4-0.4c0.6,0,1.1,0.2,1.4,0.5s0.5,0.7,0.5,1.2l0,0h-0.7c0-0.3-0.1-0.6-0.3-0.8s-0.5-0.3-0.9-0.3
			c-0.4,0-0.6,0.1-0.8,0.3s-0.3,0.4-0.3,0.7c0,0.2,0.1,0.5,0.3,0.6s0.6,0.3,1,0.4c0.6,0.1,1,0.4,1.3,0.7s0.4,0.6,0.4,1.1
			c0,0.5-0.2,0.8-0.5,1.1s-0.8,0.4-1.4,0.4c-0.5,0-1-0.2-1.5-0.5s-0.6-0.7-0.6-1.2l0,0h0.7c0,0.4,0.1,0.6,0.4,0.8s0.6,0.3,0.9,0.3
			c0.4,0,0.7-0.1,0.9-0.2S27.8,27.8,27.8,27.6z"/>
		<path class="st1" d="M30.6,23.8v1h0.8v0.6h-0.8v2.6c0,0.2,0,0.3,0.1,0.4s0.2,0.1,0.3,0.1c0,0,0.1,0,0.1,0s0.1,0,0.1,0l0.1,0.5
			c-0.1,0-0.1,0.1-0.3,0.1s-0.2,0-0.3,0c-0.3,0-0.6-0.1-0.7-0.3s-0.3-0.5-0.3-0.9v-2.6h-0.7v-0.6h0.7v-1H30.6z"/>
		<path class="st1" d="M32.1,26.8c0-0.6,0.2-1.1,0.5-1.5s0.8-0.6,1.4-0.6c0.6,0,1,0.2,1.4,0.6s0.5,0.9,0.5,1.5v0.1
			c0,0.6-0.2,1.1-0.5,1.5s-0.8,0.6-1.4,0.6s-1-0.2-1.4-0.6S32.1,27.6,32.1,26.8L32.1,26.8z M32.8,26.9c0,0.4,0.1,0.8,0.3,1.1
			s0.5,0.4,0.8,0.4c0.4,0,0.6-0.1,0.8-0.4s0.3-0.7,0.3-1.1v-0.1c0-0.4-0.1-0.8-0.3-1.1s-0.5-0.4-0.8-0.4c-0.4,0-0.6,0.1-0.8,0.4
			S32.8,26.4,32.8,26.9L32.8,26.9z"/>
		<path class="st1" d="M38.5,28.5c0.2,0,0.4-0.1,0.6-0.2s0.3-0.4,0.3-0.6h0.7l0,0c0,0.4-0.1,0.7-0.5,1s-0.7,0.4-1.1,0.4
			c-0.6,0-1.1-0.2-1.4-0.6s-0.5-0.9-0.5-1.5v-0.2c0-0.6,0.2-1.1,0.5-1.5s0.8-0.6,1.4-0.6c0.5,0,0.9,0.1,1.2,0.4s0.4,0.6,0.4,1.1l0,0
			h-0.7c0-0.3-0.1-0.5-0.3-0.7s-0.4-0.3-0.6-0.3c-0.4,0-0.7,0.1-0.8,0.4s-0.3,0.6-0.3,1.1V27c0,0.4,0.1,0.8,0.3,1.1
			S38.1,28.5,38.5,28.5z"/>
		<path class="st1" d="M42.2,27.1h-0.4V29H41v-6.1h0.8v3.5h0.4l1.3-1.7h0.9l-1.5,1.9l1.7,2.3h-0.9L42.2,27.1z"/>
		<path class="st1" d="M51.2,27.2L51.2,27.2c0,0.6-0.2,1-0.6,1.4s-0.9,0.5-1.5,0.5c-0.6,0-1.2-0.2-1.6-0.7s-0.6-1-0.6-1.7v-1
			c0-0.7,0.2-1.3,0.6-1.7s0.9-0.7,1.6-0.7s1.2,0.2,1.5,0.5s0.6,0.8,0.6,1.4l0,0h-0.7c0-0.4-0.1-0.7-0.4-0.9s-0.6-0.3-1-0.3
			c-0.4,0-0.8,0.2-1,0.5s-0.4,0.8-0.4,1.3v1c0,0.5,0.1,1,0.4,1.3s0.6,0.5,1,0.5c0.4,0,0.8-0.1,1-0.3s0.4-0.5,0.4-1H51.2z"/>
		<path class="st1" d="M52,26.8c0-0.6,0.2-1.1,0.5-1.5s0.8-0.6,1.4-0.6c0.6,0,1,0.2,1.4,0.6s0.5,0.9,0.5,1.5v0.1
			c0,0.6-0.2,1.1-0.5,1.5s-0.8,0.6-1.4,0.6s-1-0.2-1.4-0.6S52,27.6,52,26.8L52,26.8z M52.7,26.9c0,0.4,0.1,0.8,0.3,1.1
			s0.5,0.4,0.8,0.4c0.4,0,0.6-0.1,0.8-0.4s0.3-0.7,0.3-1.1v-0.1c0-0.4-0.1-0.8-0.3-1.1s-0.5-0.4-0.8-0.4c-0.4,0-0.6,0.1-0.8,0.4
			S52.7,26.4,52.7,26.9L52.7,26.9z"/>
		<path class="st1" d="M56.5,27c0-0.7,0.1-1.2,0.4-1.6s0.7-0.6,1.2-0.6c0.2,0,0.5,0,0.7,0.1s0.4,0.2,0.5,0.4v-2.3h0.8V29h-0.6
			l-0.1-0.5c-0.1,0.2-0.3,0.4-0.5,0.5s-0.4,0.2-0.7,0.2c-0.5,0-0.9-0.2-1.2-0.6S56.5,27.7,56.5,27L56.5,27z M57.3,27
			c0,0.4,0.1,0.8,0.3,1s0.4,0.4,0.8,0.4c0.2,0,0.4-0.1,0.6-0.2s0.3-0.3,0.4-0.4v-2c-0.1-0.2-0.2-0.3-0.4-0.4s-0.3-0.2-0.6-0.2
			c-0.4,0-0.6,0.2-0.8,0.5S57.3,26.5,57.3,27L57.3,27z"/>
		<path class="st1" d="M63,29.1c-0.6,0-1.1-0.2-1.4-0.6s-0.5-0.9-0.5-1.5v-0.2c0-0.6,0.2-1.1,0.5-1.5c0.3-0.4,0.8-0.6,1.3-0.6
			c0.6,0,1,0.2,1.3,0.5c0.3,0.4,0.4,0.8,0.4,1.4V27h-2.7l0,0c0,0.4,0.1,0.8,0.3,1s0.5,0.4,0.9,0.4c0.3,0,0.5,0,0.7-0.1
			c0.2-0.1,0.4-0.2,0.5-0.3l0.3,0.5c-0.2,0.1-0.4,0.3-0.6,0.4C63.6,29,63.3,29.1,63,29.1z M62.9,25.3c-0.3,0-0.5,0.1-0.7,0.3
			s-0.3,0.5-0.3,0.8l0,0h1.9v-0.1c0-0.3-0.1-0.6-0.2-0.8C63.4,25.4,63.2,25.3,62.9,25.3z"/>
		<path class="st1" d="M66.3,25.6h-0.8v-0.8h0.8V25.6z M66.3,29h-0.8v-0.8h0.8V29z"/>
		<path class="st1" d="M72.9,27c0,0.6-0.2,1.2-0.5,1.5c-0.3,0.4-0.8,0.6-1.3,0.6c-0.5,0-1-0.2-1.3-0.6c-0.3-0.4-0.5-0.9-0.5-1.5
			v-1.7c0-0.6,0.2-1.1,0.5-1.5c0.3-0.4,0.8-0.6,1.3-0.6c0.6,0,1,0.2,1.3,0.6c0.3,0.4,0.5,0.9,0.5,1.5V27z M72.2,25.2
			c0-0.4-0.1-0.7-0.3-1c-0.2-0.2-0.4-0.4-0.8-0.4c-0.3,0-0.6,0.1-0.8,0.4s-0.3,0.6-0.3,1v2c0,0.4,0.1,0.7,0.3,1s0.4,0.4,0.8,0.4
			c0.3,0,0.6-0.1,0.8-0.4s0.3-0.6,0.3-1V25.2z"/>
		<path class="st1" d="M77.4,27c0,0.6-0.2,1.2-0.5,1.5c-0.3,0.4-0.8,0.6-1.3,0.6c-0.5,0-1-0.2-1.3-0.6c-0.3-0.4-0.5-0.9-0.5-1.5
			v-1.7c0-0.6,0.2-1.1,0.5-1.5c0.3-0.4,0.8-0.6,1.3-0.6c0.6,0,1,0.2,1.3,0.6c0.3,0.4,0.5,0.9,0.5,1.5V27z M76.7,25.2
			c0-0.4-0.1-0.7-0.3-1c-0.2-0.2-0.4-0.4-0.8-0.4c-0.3,0-0.6,0.1-0.8,0.4s-0.3,0.6-0.3,1v2c0,0.4,0.1,0.7,0.3,1s0.4,0.4,0.8,0.4
			c0.3,0,0.6-0.1,0.8-0.4s0.3-0.6,0.3-1V25.2z"/>
		<path class="st1" d="M82,29h-3.5v-0.5l1.8-2.1c0.3-0.4,0.5-0.7,0.6-0.9s0.2-0.5,0.2-0.7c0-0.3-0.1-0.5-0.2-0.6
			c-0.2-0.2-0.4-0.3-0.6-0.3c-0.3,0-0.6,0.1-0.8,0.3s-0.3,0.5-0.3,0.8h-0.7l0,0c0-0.5,0.1-0.9,0.5-1.2c0.3-0.3,0.8-0.5,1.3-0.5
			c0.5,0,0.9,0.1,1.2,0.4c0.3,0.3,0.4,0.6,0.4,1.1c0,0.3-0.1,0.6-0.2,0.9c-0.2,0.3-0.4,0.6-0.8,1.1l-1.4,1.7l0,0H82V29z"/>
		<path class="st1" d="M86.5,29H83v-0.5l1.8-2.1c0.3-0.4,0.5-0.7,0.6-0.9s0.2-0.5,0.2-0.7c0-0.3-0.1-0.5-0.2-0.6
			c-0.2-0.2-0.4-0.3-0.6-0.3c-0.3,0-0.6,0.1-0.8,0.3s-0.3,0.5-0.3,0.8h-0.7l0,0c0-0.5,0.1-0.9,0.5-1.2c0.3-0.3,0.8-0.5,1.3-0.5
			c0.5,0,0.9,0.1,1.2,0.4c0.3,0.3,0.4,0.6,0.4,1.1c0,0.3-0.1,0.6-0.2,0.9c-0.2,0.3-0.4,0.6-0.8,1.1l-1.4,1.7l0,0h2.6V29z"/>
		<path class="st1" d="M90.9,27c0,0.6-0.2,1.2-0.5,1.5c-0.3,0.4-0.8,0.6-1.3,0.6c-0.5,0-1-0.2-1.3-0.6c-0.3-0.4-0.5-0.9-0.5-1.5
			v-1.7c0-0.6,0.2-1.1,0.5-1.5c0.3-0.4,0.8-0.6,1.3-0.6c0.6,0,1,0.2,1.3,0.6c0.3,0.4,0.5,0.9,0.5,1.5V27z M90.2,25.2
			c0-0.4-0.1-0.7-0.3-1c-0.2-0.2-0.4-0.4-0.8-0.4c-0.3,0-0.6,0.1-0.8,0.4s-0.3,0.6-0.3,1v2c0,0.4,0.1,0.7,0.3,1s0.4,0.4,0.8,0.4
			c0.3,0,0.6-0.1,0.8-0.4s0.3-0.6,0.3-1V25.2z"/>
		<path class="st1" d="M93.9,23.2c0.2,0,0.4,0,0.7,0.1s0.4,0.1,0.5,0.2l-0.2,0.6c-0.1-0.1-0.3-0.1-0.5-0.2s-0.4-0.1-0.6-0.1
			c-0.4,0-0.6,0.2-0.9,0.5s-0.3,0.7-0.3,1.2v0.4c0.2-0.2,0.3-0.3,0.6-0.4c0.2-0.1,0.5-0.1,0.7-0.1c0.5,0,0.9,0.2,1.2,0.5
			s0.4,0.8,0.4,1.3c0,0.6-0.2,1-0.5,1.4c-0.3,0.3-0.8,0.5-1.3,0.5c-0.5,0-1-0.2-1.3-0.6c-0.4-0.4-0.5-0.9-0.5-1.6v-1.3
			c0-0.7,0.2-1.2,0.6-1.7S93.3,23.2,93.9,23.2z M93.7,26c-0.2,0-0.5,0.1-0.6,0.2c-0.2,0.1-0.3,0.2-0.4,0.4v0.4
			c0,0.5,0.1,0.9,0.3,1.1c0.2,0.3,0.5,0.4,0.8,0.4c0.3,0,0.6-0.1,0.7-0.4c0.2-0.2,0.3-0.6,0.3-1c0-0.4-0.1-0.7-0.3-0.9
			C94.3,26.1,94,26,93.7,26z"/>
	</g>
	<path id="路径_2" class="st2" d="M38.6,8.2l-0.2-0.5c-1.5,0.1-3,0.4-4.5,0.7C33,8.6,32.2,8.8,31.4,9c-1.7,0.5-3.3,1.1-4.9,1.9
		c-2.6,1.2-5,2.9-7,5l0,0c1.6,0,3.2,0,4.8,0c0,0,0.1,0,0.1-0.1c2.9-2.7,6.3-4.7,10.1-5.9c0.5-0.2,1-0.3,1.4-0.5
		c1-0.3,1.9-0.5,2.9-0.7L38.6,8.2z"/>
	<path id="路径_3" class="st1" d="M48.6,11.7V0.2h-6v11.9c0,0.7,0.1,1.3,0.4,1.9c0.3,0.4,0.6,0.7,1,1c1.4,0.8,2.9,1.1,4.5,1.1
		h10.4v-2.8h-8.6C49.1,13.3,48.6,12.8,48.6,11.7z"/>
	<path id="路径_4" class="st1" d="M61.2,1.1c-1,0.7-1.5,1.7-1.5,2.9v7.9c-0.1,1.8,1.2,3.4,3,3.7c0.9,0.2,1.8,0.4,2.8,0.4h11.2
		v-2.8h-9.4c-0.4,0-0.8-0.1-1.1-0.3c-0.3-0.2-0.5-0.5-0.4-0.8V9.6h11V6.9h-11V3.9c0-0.3,0.2-0.6,0.5-0.7c0.5-0.2,1.1-0.3,1.7-0.3
		h8.8V0.1H64.8C63.5,0.1,62.2,0.4,61.2,1.1z"/>
	<path id="路径_5" class="st1" d="M117.6,1.2c-1.1-0.7-2.4-1.1-3.8-1h-13.3V16h13.9c0.5,0,1-0.1,1.5-0.2c0.6-0.2,1.1-0.4,1.6-0.8
		c1-0.7,1.6-1.8,1.5-3.1v-8C119.1,2.8,118.5,1.8,117.6,1.2z M113.4,12.3c0,0.3-0.2,0.5-0.4,0.7c-0.4,0.2-0.9,0.3-1.4,0.3h-5.4V3h5.6
		c1.5,0,1.7,0.6,1.7,1.1V12.3z"/>
	<path id="路径_6" class="st1" d="M34.5,10c1.2,2.9,2.6,6,2.6,6h5c-1.1-2.4-2.1-4.8-3.2-7.2c-1,0.2-1.9,0.4-2.9,0.7
		C35.5,9.7,35,9.8,34.5,10z"/>
	<path id="路径_7" class="st1" d="M14.3,0.1c-0.7,0-1.3,0.6-1.4,1.3c0,0,0,0.1,0,0.1V6H5.6V1.6c0-0.1,0-0.1,0-0.1s0-0.1,0-0.1
		C5.6,0.6,5,0.1,4.3,0.1H0V16h4.3c0.7,0,1.3-0.5,1.4-1.2c0,0,0-0.1,0-0.1s0-0.1,0-0.1V8.8H13v5.8c0,0,0,0,0,0.1c0,0,0,0,0,0.1
		c0,0.7,0.6,1.3,1.4,1.3h4.3V0.1H14.3z"/>
	<path id="路径_8" class="st1" d="M27,9.9C28,7.4,29.1,5,29.1,5c0.1-0.3,0.3-0.5,0.5-0.6C29.9,4.1,30.3,4,30.8,4
		c0.4,0,0.7,0.1,1,0.3C32,4.5,32.3,4.7,32.4,5c0,0,0.5,1.1,1.1,2.7c0,0,0.1,0,0.1,0C35.1,7.4,36.6,7.1,38,7l-1.8-4
		c-0.4-0.8-0.9-1.5-1.7-2c-1.2-0.7-2.5-1.1-3.9-1c-1.5-0.1-2.9,0.4-4.1,1.3c-0.8,0.7-1.4,1.5-1.8,2.5L21,12.5
		c-0.3,0.6-0.5,1.2-0.7,1.6c1.8-1.6,3.8-2.9,5.9-3.9C26.5,10.2,26.7,10.1,27,9.9z"/>
	<path id="路径_9" class="st1" d="M92.4,10c1.2,2.9,2.5,6,2.5,6h5c-1.1-2.4-2.1-4.8-3.2-7.2c-1,0.2-1.9,0.4-2.9,0.7
		C93.3,9.7,92.8,9.8,92.4,10z"/>
	<path id="路径_10" class="st1" d="M84.8,9.9C85.9,7.4,86.9,5,86.9,5c0.1-0.3,0.3-0.5,0.5-0.6C87.8,4.1,88.2,4,88.6,4
		c0.4,0,0.7,0.1,1,0.3c0.3,0.2,0.5,0.4,0.6,0.7c0,0,0.5,1.1,1.1,2.7c0,0,0.1,0,0.1,0C93,7.4,94.4,7.1,95.9,7l-1.8-4
		c-0.4-0.8-0.9-1.5-1.7-2c-1.2-0.7-2.5-1.1-3.9-1c-1.5-0.1-2.9,0.4-4.1,1.3c-0.8,0.7-1.4,1.5-1.8,2.5c0,0-2.3,5.3-3.8,8.8
		c-0.3,0.6-0.5,1.2-0.7,1.6c1.8-1.5,3.8-2.8,5.9-3.9C84.3,10.2,84.6,10.1,84.8,9.9z"/>
	<path id="路径_11" class="st2" d="M96.4,8.2l-0.2-0.5c-1.5,0.1-3,0.4-4.5,0.7c-0.8,0.2-1.6,0.4-2.4,0.6c-1.7,0.5-3.3,1.1-4.9,1.9
		c-2.6,1.2-5,2.9-7,5l0,0c1.6,0,3.2,0,4.8,0c0,0,0,0,0.1-0.1c2.9-2.7,6.3-4.7,10.1-5.9c0.5-0.2,0.9-0.3,1.4-0.5
		c1-0.3,1.9-0.5,2.9-0.7L96.4,8.2z"/>
</g>
</svg>
